<?xml version="1.0" standalone="no"?>
<!DOCTYPE svg PUBLIC "-//W3C//DTD SVG 20010904//EN"
 "http://www.w3.org/TR/2001/REC-SVG-20010904/DTD/svg10.dtd">
<svg version="1.0" xmlns="http://www.w3.org/2000/svg"
 width="605.000000pt" height="336.000000pt" viewBox="0 0 605.000000 336.000000"
 preserveAspectRatio="xMidYMid meet">

<g transform="translate(0.000000,336.000000) scale(0.100000,-0.100000)"
fill="#000000" stroke="none">
<path d="M2869 2860 c-102 -26 -236 -111 -301 -191 -90 -111 -128 -221 -128
-369 0 -168 51 -292 169 -409 112 -111 240 -164 401 -164 161 0 289 53 401
164 75 75 130 167 153 255 20 79 20 229 0 308 -42 164 -177 313 -347 384 -53
22 -79 26 -187 28 -69 2 -141 -1 -161 -6z m276 -45 c181 -48 337 -206 379
-385 60 -254 -54 -495 -289 -611 l-89 -44 -135 0 -136 0 -87 42 c-336 161
-414 590 -156 854 68 69 153 120 239 143 72 19 201 20 274 1z"/>
<path d="M2894 2780 c-113 -23 -263 -140 -318 -248 -62 -122 -73 -263 -31
-389 30 -88 64 -140 131 -204 107 -99 208 -134 367 -127 90 5 104 8 181 46
172 86 276 252 276 442 0 134 -47 247 -145 346 -66 67 -133 106 -222 129 -61
16 -171 18 -239 5z m208 -41 c126 -26 258 -129 311 -241 59 -124 59 -276 0
-398 -31 -64 -130 -168 -190 -199 -131 -66 -295 -66 -426 0 -60 31 -159 135
-191 202 -86 175 -41 399 104 530 109 98 248 136 392 106z"/>
<path d="M3015 2680 c-10 -17 7 -30 41 -33 23 -2 29 2 29 18 0 15 -8 21 -32
23 -17 2 -34 -2 -38 -8z"/>
<path d="M3115 2660 c-10 -16 1 -27 53 -51 26 -13 70 -47 98 -76 44 -46 53
-52 63 -39 24 29 -72 125 -162 164 -34 15 -44 15 -52 2z"/>
<path d="M2177 2823 c-4 -3 -7 -82 -7 -175 0 -145 2 -169 16 -175 29 -11 34
19 31 170 l-3 147 158 0 c151 0 158 1 158 20 0 19 -7 20 -173 20 -96 0 -177
-3 -180 -7z"/>
<path d="M3490 2810 c0 -19 6 -20 161 -20 l162 0 -5 -149 c-3 -82 -2 -154 2
-161 4 -7 15 -10 24 -7 15 6 16 27 14 179 l-3 173 -177 3 c-173 2 -178 2 -178
-18z"/>
<path d="M2177 2123 c-10 -9 -9 -353 1 -353 127 -7 331 -7 341 -1 8 5 11 16 8
25 -5 14 -28 16 -159 16 l-153 0 3 139 c3 90 0 146 -7 160 -12 22 -23 26 -34
14z"/>
<path d="M3814 2118 c-4 -7 -6 -79 -5 -160 l3 -148 -161 0 c-152 0 -161 -1
-161 -19 0 -11 8 -22 18 -25 29 -9 305 -5 324 5 16 9 18 26 18 169 0 87 -3
165 -6 174 -7 19 -20 21 -30 4z"/>
<path d="M526 1484 c-226 -82 -367 -499 -211 -622 64 -50 190 -54 289 -9 63
29 151 108 195 174 l30 44 -6 -53 c-6 -64 9 -128 40 -164 27 -31 96 -42 151
-24 45 14 137 98 181 163 l33 49 -4 -58 c-9 -109 48 -169 153 -161 71 5 136
47 196 125 26 35 47 61 47 58 0 -3 -13 -39 -30 -81 -16 -42 -30 -80 -30 -85 0
-6 19 -10 43 -10 l42 0 59 163 c87 238 200 417 290 458 55 25 79 24 112 -5 46
-39 38 -87 -56 -351 -45 -126 -84 -238 -87 -247 -5 -15 1 -18 39 -18 l44 0 58
161 c85 238 199 419 290 460 53 24 77 24 108 -1 49 -38 44 -79 -32 -285 -59
-159 -69 -224 -43 -275 36 -69 128 -89 218 -46 59 28 98 67 157 157 l44 66 -1
-76 c0 -88 19 -132 65 -156 37 -19 91 -19 135 -1 44 19 129 97 170 160 l33 48
-4 -58 c-9 -102 45 -164 141 -164 84 1 159 53 234 165 l49 74 4 -84 c3 -79 5
-87 34 -116 46 -46 106 -50 179 -14 50 24 73 46 155 145 l20 25 -19 -50 c-10
-27 -35 -97 -56 -154 -46 -126 -87 -188 -145 -218 -73 -39 -192 -25 -220 26
-9 19 -8 21 14 21 27 0 41 27 31 60 -7 22 -48 27 -75 11 -20 -13 -16 -78 7
-110 35 -47 79 -63 168 -58 127 6 213 61 269 172 13 28 81 205 150 395 68 190
128 353 131 363 6 15 1 17 -38 17 l-45 0 -18 -52 -18 -53 -8 35 c-5 19 -21 46
-35 59 -23 20 -34 23 -87 19 -148 -10 -259 -103 -355 -301 -72 -147 -147 -257
-203 -297 -85 -62 -167 -59 -188 5 -15 45 -2 93 98 368 l79 217 -47 0 -48 0
-13 -50 c-7 -27 -16 -50 -20 -50 -3 0 -9 18 -13 40 -8 53 -47 74 -125 68 -75
-6 -142 -40 -217 -111 -51 -47 -74 -79 -119 -170 -131 -260 -222 -360 -327
-360 -90 0 -100 63 -37 229 52 136 79 230 79 269 -1 47 -35 112 -69 129 -40
21 -107 20 -156 -3 -44 -20 -112 -91 -152 -158 -14 -24 -27 -43 -28 -43 -2 0
-2 21 1 48 12 101 -43 172 -133 172 -84 0 -153 -46 -215 -143 -17 -26 -32 -46
-35 -44 -2 3 10 39 27 81 16 42 30 81 30 86 0 6 -19 10 -43 10 l-42 0 -55
-152 c-104 -291 -210 -446 -330 -478 -54 -15 -96 3 -110 45 -15 45 -2 93 98
368 l79 217 -47 0 -48 0 -13 -50 c-14 -55 -24 -57 -33 -5 -9 49 -51 69 -125
62 -77 -7 -143 -40 -218 -111 -52 -48 -73 -78 -110 -155 -112 -233 -216 -339
-362 -370 -158 -33 -215 63 -162 271 35 134 109 255 190 309 49 32 105 38 137
14 19 -14 18 -14 -3 -15 -26 0 -47 -33 -38 -60 13 -40 76 -33 90 11 10 30 -13
78 -46 94 -35 19 -112 18 -163 -1z m773 -40 c27 -35 27 -92 0 -180 -74 -240
-260 -449 -358 -401 -64 31 -44 180 50 373 90 184 245 288 308 208z m2020 0
c39 -50 16 -175 -60 -327 -52 -102 -144 -213 -203 -244 -38 -20 -94 -19 -115
1 -41 42 1 244 83 390 95 169 236 255 295 180z m811 16 c11 -6 24 -27 30 -48
23 -75 -46 -268 -145 -406 -54 -76 -94 -112 -152 -138 -102 -45 -139 35 -92
202 71 257 248 449 359 390z"/>
<path d="M4765 1488 c-37 -20 -106 -93 -147 -155 -22 -35 -42 -63 -44 -63 -2
0 6 24 17 53 40 100 59 152 59 160 0 4 -19 7 -43 7 l-43 0 -117 -322 c-64
-178 -117 -326 -117 -330 0 -5 19 -8 43 -8 l42 0 53 148 c96 267 256 492 353
492 39 0 43 -12 9 -26 -50 -22 -38 -94 16 -94 34 0 54 27 54 71 0 51 -27 79
-77 79 -21 0 -47 -6 -58 -12z"/>
<path d="M5075 1478 c-2 -7 -36 -99 -74 -205 -38 -105 -75 -218 -81 -252 -27
-151 57 -231 202 -191 46 13 126 84 168 150 18 27 34 50 37 50 2 0 1 -20 -2
-44 -10 -63 22 -131 69 -151 86 -36 174 -8 256 82 47 51 150 212 150 233 0 27
-23 2 -69 -73 -92 -152 -170 -220 -253 -220 -79 0 -97 59 -57 188 16 54 122
347 154 428 7 16 3 18 -40 15 l-47 -3 -62 -170 c-110 -301 -233 -458 -358
-458 -24 0 -47 8 -59 19 -37 33 -22 110 69 359 44 121 83 228 87 238 6 15 1
17 -39 17 -28 0 -48 -5 -51 -12z"/>
</g>
</svg>
